# xmcd
#
# Track frame offsets:
#	150
#	10187
#	23762
#	37524
#	47339
#	68664
#
# Disc length: 1199 seconds
#
# Revision: 1
# Processed by: cddbd v1.5.2PL0 Copyright (c) Steve Scherf et al.
# Submitted via: audiograbber 1.83.01
#
DISCID=3304ad06
DTITLE=Slim Cessna - Rare Recordings Vol. 2
DYEAR=2007
DGENRE=Country
TTITLE0=Last Song About Satan CTK 515
TTITLE1=Peace In The Valley
TTITLE2=So Lonesome I Could Cry
TTITLE3=Help Me Make It Through The Night
TTITLE4=I Am A Sinner
TTITLE5=United Longmont
EXTD=
EXTT0=
EXTT1=
EXTT2=
EXTT3=
EXTT4=
EXTT5=
PLAYORDER=
